<?xml version="1.0" standalone="no"?>
<!DOCTYPE svg PUBLIC "-//W3C//DTD SVG 20010904//EN"
 "http://www.w3.org/TR/2001/REC-SVG-20010904/DTD/svg10.dtd">
<svg version="1.0" xmlns="http://www.w3.org/2000/svg"
 width="463.000000pt" height="463.000000pt" viewBox="0 0 463.000000 463.000000"
 preserveAspectRatio="xMidYMid meet">
<metadata>
Created by potrace 1.14, written by Peter Selinger 2001-2017
</metadata>
<g transform="translate(0.000000,463.000000) scale(0.100000,-0.100000)"
fill="#000000" stroke="none">
<path d="M2210 4573 c-140 -10 -465 -77 -455 -94 3 -4 -5 -5 -17 -1 -13 3 -19
1 -15 -5 5 -7 -1 -9 -15 -5 -16 4 -19 2 -13 -8 5 -9 4 -11 -4 -6 -16 10 -53
-3 -45 -16 4 -7 2 -8 -5 -4 -16 10 -53 -3 -45 -16 4 -7 2 -8 -5 -4 -15 9 -53
-3 -46 -15 3 -5 0 -6 -8 -3 -14 5 -197 -80 -197 -92 0 -3 5 -2 12 2 7 4 8 3 4
-4 -4 -6 -14 -8 -23 -5 -12 5 -14 3 -8 -7 5 -9 4 -11 -4 -6 -31 19 -295 -177
-461 -344 -109 -109 -255 -285 -290 -351 -11 -20 -10 -21 22 -14 31 6 170 59
193 74 6 3 29 13 51 21 30 10 63 38 111 92 73 80 275 268 288 268 2 0 39 24
82 54 612 420 1466 445 2110 61 361 -214 657 -554 818 -940 220 -525 204
-1116 -45 -1631 -51 -106 -167 -294 -225 -364 -42 -51 -121 -137 -164 -177
-24 -24 -40 -43 -35 -43 30 0 332 95 327 103 -3 6 -1 7 6 3 6 -4 33 0 59 9 35
11 51 24 64 48 148 288 180 358 221 485 74 225 100 371 115 647 5 94 -7 327
-17 321 -3 -2 -4 16 -2 41 2 28 -1 43 -6 40 -6 -4 -8 3 -6 16 2 12 -3 54 -12
92 -8 39 -18 84 -21 100 -15 81 -112 346 -168 461 -122 251 -224 393 -431 599
-138 138 -239 224 -269 229 -9 1 -19 6 -23 11 -4 4 -2 5 5 1 6 -4 12 -5 12 -3
0 9 -102 70 -116 70 -7 0 -11 4 -8 8 4 8 -35 25 -49 21 -5 -1 -6 1 -3 6 7 12
-228 123 -349 165 -274 94 -590 133 -895 110z m1605 -533 c10 -11 16 -20 13
-20 -3 0 -13 9 -23 20 -10 11 -16 20 -13 20 3 0 13 -9 23 -20z"/>
<path d="M770 3552 c0 -8 -187 -91 -215 -96 -5 -1 -16 -5 -23 -10 -8 -4 -25
-11 -38 -15 -65 -17 -242 -509 -269 -747 -28 -250 -31 -360 -15 -539 84 -920
724 -1700 1595 -1945 199 -55 338 -74 570 -74 227 -1 349 13 525 59 52 14 106
27 120 31 46 10 245 91 330 134 249 125 502 326 702 558 43 50 44 53 19 47
-14 -4 -46 -9 -71 -11 -25 -3 -101 -16 -170 -29 -69 -14 -139 -27 -155 -29
-17 -2 -69 -31 -115 -65 -234 -167 -521 -284 -835 -337 -140 -24 -472 -25
-610 -1 -322 56 -596 167 -838 341 -42 30 -77 54 -77 52 0 -7 -159 143 -230
218 -352 369 -549 901 -527 1421 10 225 58 458 132 641 18 46 30 84 27 84 -4
0 -2 4 3 8 12 8 97 178 95 188 -1 4 2 10 7 13 5 3 20 22 33 41 12 19 29 40 37
47 9 7 11 13 4 18 -6 3 -11 2 -11 -3z"/>
<path d="M930 3368 l5 -113 133 -250 c73 -137 139 -261 147 -275 50 -87 335
-639 335 -648 0 -7 2 -12 4 -12 2 0 179 -22 392 -50 213 -27 391 -50 394 -50
3 0 28 -45 55 -99 28 -58 53 -97 59 -94 6 3 8 3 4 -2 -4 -4 13 -47 37 -96 l45
-88 -84 -156 -83 -157 -48 114 c-27 62 -83 195 -125 296 l-78 184 -188 -2
c-222 -2 -234 -3 -235 -13 0 -17 66 -115 75 -110 5 3 6 2 3 -4 -8 -13 97 -176
108 -166 4 4 5 3 2 -4 -6 -10 299 -505 326 -528 7 -6 13 -16 14 -22 2 -7 31
-56 66 -110 35 -54 74 -115 86 -135 24 -40 30 -45 27 -26 0 7 39 86 87 175 49
91 85 168 81 174 -4 7 -3 9 3 6 8 -5 212 356 322 569 9 19 -12 72 -144 364
-85 189 -156 344 -158 346 -1 2 -164 30 -361 63 -197 33 -359 61 -361 63 -1 2
-28 47 -60 101 -31 53 -61 97 -65 97 -3 0 -7 6 -7 13 0 6 -55 103 -123 215
-67 112 -120 205 -118 207 4 4 137 7 288 6 l95 -1 125 -252 c69 -139 125 -254
125 -255 0 -1 59 -3 129 -4 l129 -1 17 66 17 67 -160 355 -160 354 -591 0
-591 0 5 -112z"/>
<path d="M2330 3362 l0 -118 136 -299 c75 -165 139 -302 143 -305 3 -3 7 -12
9 -20 2 -8 83 -190 180 -405 97 -214 176 -393 174 -398 -7 -22 10 -1 35 43 15
27 31 50 36 50 4 0 7 9 7 20 0 10 20 56 45 102 25 46 54 99 64 119 l20 36
-135 288 c-73 158 -134 289 -134 291 0 2 132 4 294 4 l294 0 34 64 c18 35 85
160 149 278 64 117 135 248 158 291 l42 77 -776 0 -775 0 0 -118z m972 -252
l-16 -50 -243 0 -243 0 -25 50 -25 50 284 0 284 0 -16 -50z"/>
</g>
</svg>
